<svg width="42" height="42" viewBox="0 0 42 42" fill="none" xmlns="http://www.w3.org/2000/svg">
<g clip-path="url(#clip0_51_28)">
<path d="M42 20.9934C42 32.5881 32.5948 41.9933 21 41.9933C16.7893 41.9933 12.8614 40.7468 9.56689 38.6112C7.10112 37.0078 4.98561 34.8922 3.38207 32.4265C1.24638 29.1386 0 25.2107 0 20.9934C0 9.39857 9.40521 0 21 0C25.9923 0 30.5871 1.74497 34.1915 4.66208C35.3504 5.59191 36.4014 6.6497 37.3378 7.80847C40.255 11.4128 42 15.9942 42 20.9934Z" fill="#F5A649"/>
<path d="M34.3854 17.2172C34.0105 17.2172 33.6358 17.0742 33.3497 16.7883C30.0454 13.4839 25.6596 11.6641 21.0002 11.6641C16.3408 11.6641 11.9549 13.4839 8.65076 16.7883C8.07892 17.3601 7.15156 17.3601 6.57939 16.7883C6.00739 16.2163 6.00739 15.2889 6.57939 14.7169C10.4368 10.8594 15.5583 8.73486 21.0002 8.73486C26.442 8.73486 31.5635 10.8593 35.4211 14.7169C35.9931 15.2889 35.9931 16.2163 35.4211 16.7883C35.135 17.0742 34.7602 17.2172 34.3854 17.2172Z" fill="white"/>
<path d="M29.9608 21.6419C29.5859 21.6419 29.2112 21.4989 28.9252 21.213C26.8046 19.0925 23.9902 17.9247 21.0004 17.9247C18.0105 17.9247 15.1961 19.0925 13.0756 21.213C12.5035 21.7848 11.5764 21.7848 11.0042 21.213C10.4322 20.641 10.4322 19.7136 11.0042 19.1416C13.678 16.4679 17.2281 14.9954 21.0004 14.9954C24.7727 14.9954 28.3226 16.4679 30.9965 19.1416C31.5685 19.7136 31.5685 20.641 30.9965 21.213C30.7104 21.499 30.3357 21.6419 29.9608 21.6419Z" fill="white"/>
<path d="M25.5363 26.0665C25.1614 26.0665 24.7867 25.9236 24.5007 25.6376C23.5639 24.7011 22.3209 24.1852 21.0005 24.1852C19.68 24.1852 18.437 24.7011 17.5002 25.6376C16.9282 26.2096 16.0007 26.2094 15.429 25.6374C14.857 25.0654 14.857 24.1381 15.4291 23.5662C16.9191 22.0764 18.8977 21.256 21.0005 21.256C23.1033 21.256 25.0818 22.0765 26.5718 23.5662C27.1439 24.1381 27.1439 25.0654 26.5719 25.6374C26.286 25.9235 25.9111 26.0665 25.5363 26.0665Z" fill="white"/>
<path d="M24.441 31.5356C24.441 33.4362 22.9009 34.9763 21.0003 34.9763C19.0997 34.9763 17.5596 33.4362 17.5596 31.5356C17.5596 30.5853 17.9446 29.7252 18.5672 29.1026C19.1899 28.4799 20.05 28.095 21.0003 28.095C21.9505 28.095 22.8108 28.48 23.4333 29.1026C24.056 29.7251 24.441 30.5853 24.441 31.5356Z" fill="white"/>
<g opacity="0.04">
<path d="M35.7454 16.297C35.6741 16.1167 35.5671 15.9504 35.4225 15.8058C31.5638 11.9491 26.4434 9.82371 21.0002 9.82371C15.5589 9.82371 10.4385 11.9491 6.57983 15.8058C6.43521 15.9505 6.32627 16.1168 6.25498 16.297C6.04301 15.7702 6.15195 15.1442 6.57983 14.7164C10.4384 10.8597 15.5589 8.73425 21.0002 8.73425C26.4434 8.73425 31.5639 10.8597 35.4225 14.7164C35.8483 15.1443 35.9573 15.7702 35.7454 16.297Z" fill="#040000"/>
<path d="M31.3203 20.7222C31.249 20.542 31.1421 20.3756 30.9974 20.231C28.3233 17.5569 24.7737 16.0852 21.0003 16.0852C17.2288 16.0852 13.6793 17.5569 11.0051 20.231C10.8605 20.3757 10.7516 20.542 10.6803 20.7222C10.4683 20.1954 10.5772 19.5695 11.0051 19.1416C13.6793 16.4675 17.2288 14.9957 21.0003 14.9957C24.7737 14.9957 28.3234 16.4675 30.9974 19.1416C31.4253 19.5694 31.5343 20.1954 31.3203 20.7222Z" fill="#040000"/>
<path d="M26.8949 25.1473C26.8256 24.969 26.7167 24.8006 26.5721 24.6561C25.0825 23.1665 23.1036 22.3445 21 22.3445C18.8984 22.3445 16.9195 23.1665 15.4299 24.6561C15.2833 24.8007 15.1764 24.9691 15.1051 25.1473C14.8931 24.6184 15.002 23.9925 15.4299 23.5666C16.9195 22.077 18.8984 21.255 21 21.255C23.1036 21.255 25.0825 22.077 26.5721 23.5666C26.9999 23.9925 27.1089 24.6185 26.8949 25.1473Z" fill="#040000"/>
<path d="M24.4409 31.5354C24.4409 31.7217 24.4271 31.9019 24.3974 32.0801C24.2825 31.3473 23.9359 30.6936 23.4347 30.1924C22.8107 29.5685 21.951 29.1842 21.0003 29.1842C20.0515 29.1842 19.1899 29.5685 18.5678 30.1924C18.0667 30.6936 17.72 31.3473 17.6031 32.0801C17.5734 31.9018 17.5596 31.7216 17.5596 31.5354C17.5596 30.5846 17.9459 29.725 18.5678 29.103C19.1898 28.479 20.0514 28.0947 21.0003 28.0947C21.9511 28.0947 22.8107 28.479 23.4347 29.103C24.0567 29.725 24.4409 30.5846 24.4409 31.5354Z" fill="#040000"/>
</g>
<path opacity="0.07" d="M37.3378 7.80855C36.4014 6.64978 35.3504 5.59199 34.1915 4.66216C30.5871 1.74497 25.9923 0 21 0V41.9933C32.5948 41.9933 42 32.5881 42 20.9934C42 15.9942 40.255 11.4128 37.3378 7.80855Z" fill="#040000"/>
</g>
<defs>
<clipPath id="clip0_51_28">
<rect width="42" height="42" fill="white"/>
</clipPath>
</defs>
</svg>
