<svg width="42" height="42" viewBox="0 0 42 42" fill="none" xmlns="http://www.w3.org/2000/svg">
<g clip-path="url(#clip0_51_56)">
<path d="M21 0C9.40193 0 0 9.40193 0 21C0 32.5981 9.40193 42 21 42C32.5981 42 42 32.5981 42 21C42 9.40193 32.5981 0 21 0Z" fill="#40B3E0"/>
<path d="M31.2183 12.08L27.4675 30.991C27.4675 30.991 26.943 32.3025 25.5004 31.673L16.8448 25.037L13.6974 23.5158L8.39919 21.7321C8.39919 21.7321 7.58609 21.4437 7.50734 20.8142C7.42876 20.1847 8.42544 19.8438 8.42544 19.8438L29.4871 11.5816C29.4871 11.5816 31.2183 10.821 31.2183 12.08Z" fill="white"/>
<path d="M16.1794 30.7786C16.1794 30.7786 15.9267 30.755 15.6119 29.7582C15.2972 28.7615 13.6973 23.5158 13.6973 23.5158L26.4182 15.4373C26.4182 15.4373 27.1527 14.9914 27.1264 15.4373C27.1264 15.4373 27.2575 15.5159 26.8641 15.8831C26.4707 16.2504 16.8709 24.8796 16.8709 24.8796" fill="#D2E5F1"/>
<path d="M20.1633 27.5815L16.7396 30.7029C16.7396 30.7029 16.4721 30.906 16.1792 30.7787L16.8348 24.9806" fill="#B5CFE4"/>
</g>
<defs>
<clipPath id="clip0_51_56">
<rect width="42" height="42" fill="white"/>
</clipPath>
</defs>
</svg>
