<svg width="42" height="42" viewBox="0 0 42 42" fill="none" xmlns="http://www.w3.org/2000/svg">
<g clip-path="url(#clip0_51_21)">
<mask id="mask0_51_21" style="mask-type:luminance" maskUnits="userSpaceOnUse" x="0" y="0" width="42" height="42">
<path d="M41.7922 0H0.208008V42H41.7922V0Z" fill="white"/>
</mask>
<g mask="url(#mask0_51_21)">
<path d="M0.208008 20.16C0.208008 10.6565 0.208008 5.90474 3.13114 2.95236C6.05428 0 10.759 0 20.1684 0H21.8318C31.2412 0 35.9459 0 38.8691 2.95236C41.7922 5.90474 41.7922 10.6565 41.7922 20.16V21.84C41.7922 31.3435 41.7922 36.0953 38.8691 39.0476C35.9459 42 31.2412 42 21.8318 42H20.1684C10.759 42 6.05428 42 3.13114 39.0476C0.208008 36.0953 0.208008 31.3435 0.208008 21.84V20.16Z" fill="#0077FF"/>
<path d="M22.3345 30.2576C12.8567 30.2576 7.45085 23.6951 7.22559 12.7751H11.9731C12.1291 20.7901 15.629 24.1851 18.4012 24.8851V12.7751H22.8717V19.6876C25.6093 19.3901 28.4852 16.2401 29.4555 12.7751H33.9259C33.1809 17.0452 30.0621 20.1951 27.8443 21.4901C30.0621 22.5401 33.6142 25.2876 34.9657 30.2576H30.0448C28.9878 26.9326 26.3544 24.3601 22.8717 24.0101V30.2576H22.3345Z" fill="white"/>
</g>
</g>
<defs>
<clipPath id="clip0_51_21">
<rect width="42" height="42" fill="white"/>
</clipPath>
</defs>
</svg>
